<mxfile host="app.diagrams.net" modified="2023-05-14T15:14:10.613Z" agent="Mozilla/5.0 (Windows NT 10.0; Win64; x64) AppleWebKit/537.36 (KHTML, like Gecko) Chrome/112.0.5615.138 Safari/537.36" etag="i3Dx9j7-Jvi5SJZ_pdfE" version="21.2.3" type="device">
  <diagram name="Page-1" id="oRv2mCLcNThilUDeEQHL">
    <mxGraphModel dx="1050" dy="548" grid="1" gridSize="10" guides="1" tooltips="1" connect="1" arrows="1" fold="1" page="1" pageScale="1" pageWidth="850" pageHeight="1100" math="0" shadow="0">
      <root>
        <mxCell id="0" />
        <mxCell id="1" parent="0" />
        <mxCell id="7_7gwE0xfjfreYk1ln2n-27" style="edgeStyle=orthogonalEdgeStyle;rounded=0;orthogonalLoop=1;jettySize=auto;html=1;exitX=0.5;exitY=1;exitDx=0;exitDy=0;entryX=0.5;entryY=0;entryDx=0;entryDy=0;" edge="1" parent="1" source="7_7gwE0xfjfreYk1ln2n-1" target="7_7gwE0xfjfreYk1ln2n-14">
          <mxGeometry relative="1" as="geometry" />
        </mxCell>
        <mxCell id="7_7gwE0xfjfreYk1ln2n-1" value="&lt;font style=&quot;font-size: 19px;&quot;&gt;Початок&lt;/font&gt;" style="rounded=1;whiteSpace=wrap;html=1;arcSize=50;" vertex="1" parent="1">
          <mxGeometry x="300" y="40" width="130" height="60" as="geometry" />
        </mxCell>
        <mxCell id="7_7gwE0xfjfreYk1ln2n-34" style="edgeStyle=orthogonalEdgeStyle;rounded=0;orthogonalLoop=1;jettySize=auto;html=1;entryX=0.5;entryY=0;entryDx=0;entryDy=0;" edge="1" parent="1" source="7_7gwE0xfjfreYk1ln2n-3" target="7_7gwE0xfjfreYk1ln2n-24">
          <mxGeometry relative="1" as="geometry" />
        </mxCell>
        <mxCell id="7_7gwE0xfjfreYk1ln2n-38" style="edgeStyle=orthogonalEdgeStyle;rounded=0;orthogonalLoop=1;jettySize=auto;html=1;exitX=1;exitY=0.5;exitDx=0;exitDy=0;entryX=0;entryY=0.5;entryDx=0;entryDy=0;" edge="1" parent="1" source="7_7gwE0xfjfreYk1ln2n-3" target="7_7gwE0xfjfreYk1ln2n-19">
          <mxGeometry relative="1" as="geometry" />
        </mxCell>
        <mxCell id="7_7gwE0xfjfreYk1ln2n-3" value="i" style="verticalLabelPosition=bottom;verticalAlign=top;html=1;shape=hexagon;perimeter=hexagonPerimeter2;arcSize=6;size=0.09523809523809523;" vertex="1" parent="1">
          <mxGeometry x="260" y="220" width="210" height="60" as="geometry" />
        </mxCell>
        <mxCell id="7_7gwE0xfjfreYk1ln2n-4" value="&lt;font style=&quot;font-size: 24px;&quot;&gt;i = 0, h*w, 1&lt;/font&gt;" style="text;html=1;strokeColor=none;fillColor=none;align=center;verticalAlign=middle;whiteSpace=wrap;rounded=0;" vertex="1" parent="1">
          <mxGeometry x="298.75" y="235" width="132.5" height="30" as="geometry" />
        </mxCell>
        <mxCell id="7_7gwE0xfjfreYk1ln2n-37" style="edgeStyle=orthogonalEdgeStyle;rounded=0;orthogonalLoop=1;jettySize=auto;html=1;entryX=0;entryY=0.5;entryDx=0;entryDy=0;" edge="1" parent="1" source="7_7gwE0xfjfreYk1ln2n-13" target="7_7gwE0xfjfreYk1ln2n-3">
          <mxGeometry relative="1" as="geometry">
            <Array as="points">
              <mxPoint x="160" y="420" />
              <mxPoint x="160" y="250" />
            </Array>
          </mxGeometry>
        </mxCell>
        <mxCell id="7_7gwE0xfjfreYk1ln2n-13" value="&lt;font style=&quot;font-size: 24px;&quot;&gt;B.push(c)&amp;nbsp;&lt;/font&gt;" style="rounded=0;whiteSpace=wrap;html=1;" vertex="1" parent="1">
          <mxGeometry x="300" y="390" width="130" height="60" as="geometry" />
        </mxCell>
        <mxCell id="7_7gwE0xfjfreYk1ln2n-39" style="edgeStyle=orthogonalEdgeStyle;rounded=0;orthogonalLoop=1;jettySize=auto;html=1;exitX=0.5;exitY=1;exitDx=0;exitDy=0;entryX=0.5;entryY=0;entryDx=0;entryDy=0;" edge="1" parent="1" source="7_7gwE0xfjfreYk1ln2n-14" target="7_7gwE0xfjfreYk1ln2n-3">
          <mxGeometry relative="1" as="geometry" />
        </mxCell>
        <mxCell id="7_7gwE0xfjfreYk1ln2n-14" value="&lt;font style=&quot;font-size: 24px;&quot;&gt;B = [h, w]&lt;/font&gt;" style="rounded=0;whiteSpace=wrap;html=1;" vertex="1" parent="1">
          <mxGeometry x="285" y="130" width="160" height="60" as="geometry" />
        </mxCell>
        <mxCell id="7_7gwE0xfjfreYk1ln2n-18" value="&lt;span style=&quot;font-size: 19px;&quot;&gt;Кінець&lt;/span&gt;" style="rounded=1;whiteSpace=wrap;html=1;arcSize=50;" vertex="1" parent="1">
          <mxGeometry x="660" y="220" width="130" height="60" as="geometry" />
        </mxCell>
        <mxCell id="7_7gwE0xfjfreYk1ln2n-28" style="edgeStyle=orthogonalEdgeStyle;rounded=0;orthogonalLoop=1;jettySize=auto;html=1;exitX=1;exitY=0.5;exitDx=0;exitDy=0;entryX=0;entryY=0.5;entryDx=0;entryDy=0;" edge="1" parent="1" source="7_7gwE0xfjfreYk1ln2n-19" target="7_7gwE0xfjfreYk1ln2n-18">
          <mxGeometry relative="1" as="geometry" />
        </mxCell>
        <mxCell id="7_7gwE0xfjfreYk1ln2n-19" value="&lt;span style=&quot;font-size: 24px;&quot;&gt;return B&lt;/span&gt;" style="rounded=0;whiteSpace=wrap;html=1;" vertex="1" parent="1">
          <mxGeometry x="500" y="220" width="126.25" height="60" as="geometry" />
        </mxCell>
        <mxCell id="7_7gwE0xfjfreYk1ln2n-35" value="" style="edgeStyle=orthogonalEdgeStyle;rounded=0;orthogonalLoop=1;jettySize=auto;html=1;" edge="1" parent="1" source="7_7gwE0xfjfreYk1ln2n-24" target="7_7gwE0xfjfreYk1ln2n-13">
          <mxGeometry relative="1" as="geometry" />
        </mxCell>
        <mxCell id="7_7gwE0xfjfreYk1ln2n-24" value="&lt;font style=&quot;font-size: 22px;&quot;&gt;c = A[i][0]&amp;nbsp;·&amp;nbsp;&amp;nbsp;A[i][1]&amp;nbsp;·&amp;nbsp;&amp;nbsp;A[i][2]&lt;/font&gt;" style="rounded=0;whiteSpace=wrap;html=1;" vertex="1" parent="1">
          <mxGeometry x="217.5" y="310" width="295" height="50" as="geometry" />
        </mxCell>
      </root>
    </mxGraphModel>
  </diagram>
</mxfile>
